<?xml version="1.0" encoding="UTF-8"?>
<!DOCTYPE svg PUBLIC "-//W3C//DTD SVG 1.1//EN" "http://www.w3.org/Graphics/SVG/1.1/DTD/svg11.dtd">
<!-- Creator: CorelDRAW X7 -->
<svg xmlns="http://www.w3.org/2000/svg" xml:space="preserve" width="0.415827in" height="0.416083in" version="1.1" style="shape-rendering:geometricPrecision; text-rendering:geometricPrecision; image-rendering:optimizeQuality; fill-rule:evenodd; clip-rule:evenodd"
viewBox="0 0 32 32"
 xmlns:xlink="http://www.w3.org/1999/xlink">
 <defs>
  <style type="text/css">
   <![CDATA[
    .fil1 {fill:#FEFEFE}
    .fil0 {fill:#A0E040}
    .fil2 {fill:#373435;fill-opacity:0.270588}
   ]]>
  </style>
 </defs>
 <g id="Layer_x0020_1">
  <metadata id="CorelCorpID_0Corel-Layer"/>
  <circle class="fil0" cx="16" cy="16" r="16"/>
  <path class="fil1" d="M5 7l4 3c0,0 0,1 0,1l0 0c0,0 -1,0 -1,0l-3 -4c0,0 -1,0 -1,0 0,0 0,-1 0,-1 0,0 1,0 1,0 0,0 0,1 0,1z"/>
  <path class="fil1" d="M27 6l-4 4c0,0 0,0 0,0l0 0c0,1 0,1 1,0l3 -3c0,0 1,0 1,0 0,-1 0,-1 0,-1 0,-1 -1,-1 -1,0 0,0 0,0 0,0z"/>
  <g id="_785744400">
   <path class="fil1" d="M15 9c0,0 0,0 0,0 0,0 1,0 1,0l0 0c0,0 0,0 0,0 0,0 0,0 0,0 0,-1 0,-1 0,-1 0,0 0,-1 0,-1 0,0 0,0 0,0 0,-1 -1,-1 -1,-1 0,0 0,0 0,0 0,0 0,-1 0,-1 0,0 0,0 0,0 0,0 0,0 0,-1 0,0 0,0 0,0l0 0c0,0 0,0 0,0l0 1c0,0 0,0 0,0 0,0 0,0 0,0 0,0 0,0 0,0 0,0 -1,0 -1,0 0,0 0,1 0,1 0,0 0,0 0,0 1,0 1,1 1,1 0,0 0,0 0,0 0,0 0,1 0,1 0,0 0,0 0,1 0,0 0,0 0,0 0,0 0,0 0,0 0,0 0,0 0,0l0 0z"/>
   <path class="fil1" d="M18 8c0,0 0,0 0,0 0,0 -1,-1 -1,-1 0,0 0,-1 0,-1 0,0 0,0 0,0 0,0 0,-1 0,-1 0,0 0,0 0,0 0,0 0,0 0,0 0,0 0,0 0,0l0 0c0,0 -1,0 -1,0 0,0 0,0 0,0 0,1 0,1 0,1 0,0 0,0 0,1 1,0 1,1 1,1 0,0 0,0 0,0 0,1 0,1 0,1 0,0 0,0 0,0 0,0 0,0 0,0l0 0c0,0 0,0 0,0l0 -1c1,0 1,0 1,0 0,0 0,0 0,0l0 0z"/>
   <path class="fil1" d="M13 6l0 0c0,0 0,0 0,0 0,1 0,1 0,1 0,0 1,0 1,1 0,0 0,0 0,0 0,0 0,0 0,1 0,0 0,0 0,0 0,0 0,0 0,0 0,0 0,0 0,0l0 0c0,0 0,0 0,-1 0,0 0,0 0,0 0,0 0,-1 0,-1 0,0 0,0 0,0 0,-1 0,-1 0,-1 0,0 0,0 0,0 0,0 0,0 0,0 0,0 0,-1 0,-1 0,0 0,0 0,0 0,0 -1,0 -1,0 0,0 0,0 0,0 0,0 0,0 0,0 0,0 0,1 0,1 0,0 0,0 0,0z"/>
  </g>
  <path class="fil2" d="M26 25l-5 6c-12,4 -20,-6 -21,-11l8 -8 18 13z"/>
  <path class="fil1" d="M26 25c-3,2 -11,2 -16,-1 -2,-2 -3,-4 -3,-6 -1,-6 2,-9 6,-11 0,1 0,1 0,1 0,0 0,0 0,0 0,0 0,0 0,0 0,0 0,1 0,1 0,0 0,0 0,0 1,0 1,0 1,0l0 0c0,0 0,0 1,0 0,0 0,-1 0,-1 0,0 0,0 0,1 0,0 0,0 0,0 0,0 0,0 0,0 0,0 0,1 0,1 0,0 0,0 0,0l0 0c0,0 0,0 1,0 0,0 0,0 0,0 0,0 0,0 0,0l0 -1c0,0 0,0 0,0 0,0 0,0 0,0 0,0 0,0 0,0 0,0 0,0 0,0 1,0 1,1 1,0 0,0 0,0 0,0 0,0 0,0 0,0l1 0c0,0 0,0 0,0l0 0c0,0 0,0 0,0 0,0 0,-1 0,-1 0,0 0,0 0,0 0,0 0,0 0,0l0 0c0,0 0,0 0,0 0,0 0,0 0,0 0,-1 0,-1 0,-1 2,0 3,1 5,3 5,4 1,10 1,11 0,2 1,2 2,4z"/>
  <rect class="fil0" x="12" y="13" width="7.74224" height="2.70508" rx="1" ry="1"/>
  <ellipse class="fil1" cx="14" cy="14"/>
  <ellipse class="fil1" cx="18" cy="14"/>
 </g>
</svg>
